<?xml version="1.0" standalone="no"?>
<!DOCTYPE svg PUBLIC "-//W3C//DTD SVG 20010904//EN"
 "http://www.w3.org/TR/2001/REC-SVG-20010904/DTD/svg10.dtd">
<svg version="1.0" xmlns="http://www.w3.org/2000/svg"
 width="120.000000pt" height="120.000000pt" viewBox="0 0 120.000000 120.000000"
 preserveAspectRatio="xMidYMid meet">
<metadata>
Created by potrace 1.14, written by Peter Selinger 2001-2017
</metadata>
<g transform="translate(0.000000,120.000000) scale(0.100000,-0.100000)"
fill="#000000" stroke="none">
<path d="M0 600 l0 -600 200 0 200 0 0 100 0 100 63 -7 c34 -3 64 -8 67 -10 2
-2 -1 -12 -7 -23 -7 -10 -13 -39 -14 -64 -2 -26 -8 -47 -16 -50 -7 -3 -13 -14
-13 -25 0 -19 8 -20 195 -21 l196 -1 49 42 c28 23 50 46 50 51 0 6 -21 -9 -46
-31 -75 -66 -83 -55 -58 82 7 33 36 52 62 38 16 -8 18 -5 18 27 0 20 -4 40 -8
43 -5 3 12 25 38 48 51 45 66 82 30 73 -23 -5 -56 -36 -56 -51 0 -5 -15 -14
-34 -21 -18 -6 -42 -20 -51 -30 -26 -29 -39 -25 -18 5 10 13 32 30 50 37 18 6
35 18 37 25 6 15 -5 17 -19 4 -12 -10 -163 -91 -171 -91 -3 0 9 12 28 27 18
16 35 31 36 36 2 4 8 7 13 7 6 0 33 15 62 33 29 18 61 36 71 40 30 12 13 18
-21 8 l-31 -9 20 71 c10 40 28 91 38 115 30 66 50 193 50 311 1 58 7 133 15
166 8 33 15 79 15 103 0 38 -2 42 -25 42 -24 0 -25 -3 -25 -58 0 -31 -5 -73
-10 -92 -6 -19 -15 -107 -20 -195 -9 -158 -15 -189 -63 -315 -14 -36 -28 -90
-32 -120 -4 -31 -15 -60 -24 -68 -38 -30 -96 -65 -123 -73 -28 -8 -29 -7 -22
27 5 30 4 34 -14 34 -15 0 -24 -10 -33 -35 -16 -42 -83 -75 -156 -75 -99 0
-93 -10 -93 176 0 152 1 164 18 164 10 0 39 10 64 23 44 22 47 22 69 6 32 -22
152 -59 195 -59 48 0 107 33 141 77 24 31 28 46 28 97 0 100 -11 132 -60 178
-62 58 -143 90 -221 86 -61 -3 -62 -2 -113 45 -28 27 -67 55 -86 63 -33 14
-35 17 -35 64 l0 50 -200 0 -200 0 0 -600z m481 403 c41 -39 59 -64 59 -81 0
-13 7 -51 16 -85 l15 -60 -32 -65 c-34 -67 -55 -87 -108 -102 l-31 -9 0 99 c0
88 2 99 19 105 26 8 53 51 49 78 -2 13 -16 28 -35 37 -32 15 -33 17 -33 78 0
38 4 62 11 62 6 0 37 -25 70 -57z m234 -73 c22 -11 44 -20 51 -20 6 0 32 -19
56 -42 43 -40 46 -47 52 -110 10 -89 -15 -141 -79 -169 -42 -19 -47 -19 -108
-3 -77 19 -127 47 -127 71 0 10 10 34 21 53 22 35 22 51 3 169 -6 36 -4 46 11
58 27 19 75 16 120 -7z m25 -720 c0 -5 -4 -10 -10 -10 -5 0 -10 5 -10 10 0 6
5 10 10 10 6 0 10 -4 10 -10z m80 -17 c0 -5 -5 -15 -10 -23 -8 -12 -10 -11
-10 8 0 12 5 22 10 22 6 0 10 -3 10 -7z m-60 -43 c0 -5 -7 -7 -15 -4 -8 4 -12
10 -9 15 6 11 24 2 24 -11z m50 -91 c0 -24 -4 -38 -10 -34 -17 10 -11 75 7 75
2 0 3 -18 3 -41z"/>
<path d="M738 843 c-9 -2 -22 -17 -28 -33 -10 -25 -10 -34 5 -56 15 -23 21
-25 53 -19 53 10 72 23 72 48 0 52 -41 76 -102 60z"/>
<path d="M1058 341 c-84 -59 -97 -76 -97 -126 1 -38 1 -39 10 -13 6 15 29 38
55 53 24 14 44 31 44 38 0 7 16 30 35 51 55 63 46 62 -47 -3z"/>
<path d="M1169 363 c-13 -16 -12 -17 4 -4 16 13 21 21 13 21 -2 0 -10 -8 -17
-17z"/>
<path d="M1110 330 c-14 -10 -22 -21 -19 -25 4 -3 20 5 35 19 34 30 21 35 -16
6z"/>
<path d="M972 140 c0 -14 2 -19 5 -12 2 6 2 18 0 25 -3 6 -5 1 -5 -13z"/>
</g>
</svg>
